P3
# CREATOR: GIMP PNM Filter Version 1.1
50 50
255
78
96
80
86
103
87
93
110
94
102
116
101
107
121
104
115
128
110
130
139
120
144
151
133
159
163
146
165
169
154
166
172
158
160
171
157
161
175
160
154
170
157
158
174
161
161
177
164
150
181
166
158
182
169
160
176
165
168
180
168
167
179
167
164
181
165
163
184
167
161
182
167
165
183
169
168
186
174
166
188
175
162
188
175
161
187
174
161
183
171
160
173
164
167
174
167
157
174
166
156
172
169
156
173
163
158
177
147
176
191
150
201
208
174
191
188
169
183
175
156
186
180
146
172
169
126
175
176
136
175
177
138
167
170
125
157
159
112
141
136
104
37
28
11
127
113
50
160
146
83
98
115
99
94
111
95
98
112
97
108
122
107
121
134
117
132
143
126
146
155
136
158
165
147
170
174
157
172
176
159
178
185
169
168
179
163
159
173
158
167
181
168
164
178
165
163
177
164
155
181
170
160
180
171
172
188
178
174
185
177
169
180
172
169
185
174
165
183
171
174
192
180
172
188
177
179
192
182
175
193
181
170
192
179
166
188
176
162
182
171
165
181
171
168
178
170
160
177
167
160
176
173
170
186
176
173
189
162
198
210
170
207
213
177
196
191
171
203
195
176
196
190
158
188
185
142
190
191
149
183
185
145
169
172
127
161
160
114
160
156
119
145
134
112
163
143
84
170
150
91
102
119
101
99
116
98
108
122
105
123
136
119
134
145
128
143
154
137
156
165
146
167
175
154
172
180
159
174
181
163
179
188
171
171
182
166
166
178
164
172
184
172
166
178
166
166
178
166
158
173
170
158
170
168
152
162
161
147
157
156
124
134
133
151
163
159
170
182
178
169
180
174
170
179
174
168
178
170
149
159
151
149
162
152
171
189
177
175
192
182
168
185
175
171
187
177
167
185
171
170
185
180
177
190
183
184
196
172
215
223
184
209
211
174
203
197
173
212
204
185
201
194
165
204
201
160
196
197
153
184
185
143
178
179
135
168
167
121
161
156
114
139
131
95
158
135
93
144
121
79
103
120
101
112
127
108
127
140
122
140
151
134
147
156
137
155
164
145
167
175
154
174
182
161
175
183
162
175
184
165
175
186
169
175
186
170
175
186
172
170
180
169
170
180
171
167
174
166
142
147
150
140
145
149
137
142
146
72
80
83
49
57
60
59
67
70
111
119
122
94
99
102
102
103
105
78
80
79
77
79
76
76
82
78
106
117
111
171
187
177
172
189
179
167
187
176
173
190
174
182
195
186
183
193
184
203
208
186
225
227
190
212
210
172
217
211
185
214
206
185
211
206
176
208
206
167
193
192
148
191
192
150
188
187
143
176
173
128
172
165
119
146
138
92
106
94
78
72
60
44
112
127
106
126
139
119
140
152
132
148
157
138
156
164
143
167
175
154
176
184
163
177
185
164
175
184
163
173
185
165
177
189
169
180
191
174
177
185
172
182
188
178
160
165
159
113
118
112
85
84
92
63
63
71
49
52
59
33
37
46
30
33
42
33
36
45
36
36
46
39
37
48
42
41
49
48
47
55
38
37
43
40
41
45
49
53
54
135
146
142
172
187
180
179
196
188
179
193
176
187
198
184
196
202
188
223
225
201
227
224
189
217
213
176
228
221
192
218
212
186
214
209
179
216
214
176
207
205
164
205
202
161
188
185
144
181
177
132
167
160
114
140
133
87
36
36
46
7
7
17
119
133
110
135
149
126
151
160
139
156
164
143
167
172
152
178
181
162
181
186
166
177
186
165
175
187
167
180
193
173
176
189
169
183
192
175
188
191
180
181
182
176
122
122
120
90
90
90
47
41
55
32
30
41
20
20
30
15
15
25
21
19
30
23
20
31
21
15
29
17
10
26
15
11
26
21
19
33
27
25
39
24
22
35
34
33
41
61
65
68
139
148
147
172
184
180
191
204
187
195
204
185
214
218
193
234
233
202
226
222
187
225
219
185
226
220
186
223
219
184
227
224
189
215
212
177
212
208
173
208
203
165
202
197
157
185
180
138
173
168
128
109
103
67
14
21
39
8
15
33
128
140
118
146
158
136
160
170
146
171
176
154
182
185
164
186
187
169
183
186
169
180
189
170
177
190
170
175
190
169
184
197
177
186
193
177
187
189
178
187
183
180
121
117
118
46
41
47
21
14
30
19
15
29
21
21
31
20
18
29
24
21
32
17
6
20
24
13
29
10
1
20
9
6
25
10
8
29
17
15
36
20
17
36
24
20
35
37
34
45
53
54
59
122
127
130
189
197
184
206
211
188
227
228
194
237
235
197
230
226
191
234
228
196
226
222
187
228
226
187
222
220
181
220
215
183
223
216
187
211
202
169
210
202
163
192
187
149
166
161
132
57
52
32
23
27
36
31
35
44
140
149
128
153
162
141
163
171
148
175
180
158
190
192
171
190
189
171
182
185
168
183
192
175
183
196
178
185
200
179
183
195
175
169
171
157
168
164
155
131
123
121
88
79
84
43
36
44
23
16
32
20
16
31
18
18
30
11
9
22
15
9
21
17
4
21
13
0
18
14
5
26
9
6
27
5
6
27
16
17
38
17
12
34
23
14
33
28
20
35
29
23
33
47
44
51
160
163
156
205
209
186
229
231
191
234
232
191
235
230
198
235
231
202
228
225
190
231
232
188
226
224
183
222
216
184
223
212
184
221
208
176
210
200
164
190
186
151
127
124
105
45
44
39
32
34
29
58
60
55
151
158
140
159
167
146
174
182
159
188
191
170
192
191
171
191
190
172
190
191
177
187
196
179
186
199
181
184
199
178
177
186
167
179
177
164
142
133
126
74
62
64
45
33
43
26
18
31
21
12
29
15
11
26
17
15
29
10
8
22
5
1
18
10
0
18
15
3
25
14
6
27
16
13
32
12
13
31
13
12
30
15
8
26
23
12
29
23
10
27
31
20
34
41
33
46
64
62
63
173
174
156
216
216
180
231
229
190
237
234
203
232
231
201
232
232
196
230
231
187
230
227
186
228
219
186
228
214
185
228
215
181
210
200
164
156
152
123
55
55
45
24
27
32
56
59
50
81
84
75
164
168
151
169
174
154
180
185
163
190
193
172
193
192
172
192
191
173
193
194
180
192
198
184
191
204
186
192
205
185
188
192
175
167
161
147
82
67
62
52
36
39
42
29
39
31
20
36
23
12
29
20
13
29
8
5
24
1
0
20
6
2
25
13
5
29
13
3
27
11
4
22
8
4
18
5
3
14
17
11
21
18
8
17
29
15
28
35
21
34
24
13
27
37
29
44
41
38
47
68
65
58
182
180
157
222
221
190
233
232
202
232
231
201
235
236
202
228
229
189
233
230
189
236
226
190
231
218
184
218
205
170
205
196
163
134
132
109
61
63
58
45
52
60
97
104
96
91
98
90
173
176
159
176
181
161
184
189
167
192
196
173
193
195
174
194
193
175
196
197
183
196
202
188
192
205
187
193
205
185
197
198
180
145
133
119
83
62
57
66
45
50
44
28
39
26
18
33
24
10
27
29
18
35
17
12
32
8
6
30
14
11
38
15
9
35
15
7
30
12
3
20
8
1
9
23
14
17
21
9
9
29
15
15
62
47
52
90
77
87
39
31
44
39
32
48
44
38
52
35
30
36
103
100
93
204
201
182
212
211
183
216
215
184
235
234
203
236
231
199
237
231
195
228
219
180
234
222
184
223
213
177
151
146
116
62
61
41
53
58
52
93
101
104
111
119
106
95
103
90
177
178
162
180
183
164
187
192
169
193
198
175
195
197
175
197
196
178
200
201
187
200
206
192
199
210
193
204
212
191
202
199
180
167
149
135
87
62
57
57
32
36
43
27
38
21
13
28
32
18
33
36
23
40
23
14
35
10
5
28
13
9
34
10
5
28
21
12
31
41
29
41
42
27
30
55
37
33
80
61
55
104
85
81
110
94
95
43
32
40
28
22
34
26
23
40
29
25
42
27
23
38
35
29
39
101
98
89
178
176
151
208
205
172
234
229
199
240
230
203
236
225
193
239
230
191
229
220
181
194
188
156
91
86
64
58
59
43
87
93
83
132
138
134
112
120
99
108
116
95
181
179
164
183
186
167
190
195
172
195
201
175
195
199
176
201
200
182
205
206
192
205
212
196
201
210
191
202
207
185
197
189
168
131
110
93
75
45
37
73
47
50
49
33
43
15
9
23
42
28
41
51
39
53
27
14
32
16
4
24
22
13
34
28
17
34
24
10
23
65
46
52
107
83
83
126
98
94
142
115
108
127
106
101
56
42
41
18
11
18
18
16
29
9
8
24
17
14
31
19
16
37
14
10
27
39
34
31
124
118
94
210
201
168
240
229
201
249
235
209
241
228
196
239
229
193
226
220
188
146
141
119
78
76
61
86
88
74
137
139
126
135
138
127
125
134
107
132
141
114
186
184
169
188
191
170
192
201
174
194
203
174
197
201
176
203
205
184
209
210
194
208
212
197
206
213
195
207
209
187
186
175
153
103
76
59
106
72
63
69
41
40
38
23
30
12
6
18
30
20
29
55
43
53
33
19
32
27
11
22
47
31
41
68
51
59
33
13
15
68
42
43
131
97
96
156
121
119
144
113
111
79
58
57
19
7
11
13
8
15
6
6
18
6
8
23
9
11
24
16
14
36
19
14
36
15
9
11
151
140
118
244
229
198
252
232
205
248
228
203
246
231
200
236
227
194
181
176
156
87
87
77
83
84
78
129
131
117
158
159
141
148
147
129
151
157
129
168
174
146
191
188
171
194
196
175
196
205
178
197
206
177
201
207
179
210
212
190
214
215
197
209
213
196
209
214
194
204
204
180
196
181
158
131
103
82
134
97
88
89
59
57
46
31
36
15
12
21
16
11
18
27
17
25
43
26
32
49
27
30
75
51
51
92
67
63
57
28
24
90
55
53
144
104
104
153
112
116
109
74
80
55
32
40
32
21
29
5
2
13
5
4
18
8
7
23
4
8
19
7
8
28
14
11
30
37
28
29
196
184
162
248
229
199
180
156
130
202
178
150
218
202
168
217
207
180
87
84
75
27
28
32
69
71
70
174
176
162
157
156
136
159
154
135
175
177
153
188
190
166
193
190
173
197
199
177
200
209
180
201
212
180
208
214
186
218
220
198
219
220
202
210
214
197
209
214
192
209
209
185
203
187
162
177
146
126
151
113
102
89
59
57
62
47
52
35
32
41
51
49
54
28
19
24
85
66
68
114
88
87
131
102
96
118
88
78
98
65
56
142
103
96
146
102
103
119
76
83
106
70
80
66
44
56
19
9
20
7
5
18
5
4
20
3
2
18
0
7
15
3
6
23
6
3
20
55
46
47
169
154
135
243
219
193
150
123
96
108
83
53
174
156
120
139
129
104
30
29
27
13
15
28
45
49
52
125
127
113
121
119
96
133
125
106
157
152
132
148
143
121
183
193
166
198
207
178
211
214
185
218
213
184
223
216
188
227
221
197
219
221
200
210
218
203
203
214
198
198
201
180
203
190
158
202
173
133
176
137
98
109
70
39
100
69
51
112
87
80
55
49
49
44
25
29
101
70
76
153
113
114
169
122
112
163
112
95
175
127
117
153
122
120
65
51
51
52
40
28
103
75
51
157
112
91
141
93
91
58
24
40
20
1
21
18
7
24
14
1
18
22
4
20
49
23
36
114
82
85
132
98
88
162
131
110
142
120
96
134
123
105
169
166
159
174
179
182
153
160
166
147
155
157
122
125
116
140
141
123
141
139
114
145
141
114
124
128
111
91
95
78
190
199
170
205
212
181
219
219
191
225
220
191
228
221
193
229
223
197
220
222
200
210
219
200
207
218
201
206
208
184
218
205
173
187
159
120
162
124
87
129
92
63
86
54
39
97
72
67
110
84
71
72
39
34
128
87
83
171
129
117
185
144
124
182
145
129
146
115
113
64
47
53
47
45
50
19
15
16
48
24
24
145
101
98
179
129
118
184
140
127
156
123
118
157
127
135
102
65
83
75
43
54
89
60
65
90
63
68
90
61
65
104
76
73
71
49
36
168
156
144
188
189
183
168
177
172
159
172
162
140
151
137
148
151
142
127
126
122
96
93
86
166
164
152
187
187
175
184
184
172
202
209
176
215
218
187
225
224
194
230
225
195
233
226
197
232
225
199
223
223
199
216
221
199
218
226
203
215
218
189
204
191
157
188
160
121
165
129
93
131
94
68
111
79
68
79
51
50
157
116
98
159
113
97
182
135
115
187
145
120
188
156
131
139
119
110
56
45
51
50
48
59
42
46
55
19
18
34
19
1
27
101
63
76
172
121
102
199
147
108
194
144
119
189
143
143
137
83
97
107
67
67
88
63
56
62
43
45
74
53
68
90
67
77
68
47
44
142
129
120
203
205
192
168
181
161
157
174
140
151
162
130
159
159
147
56
49
57
24
16
27
20
15
19
34
24
23
47
37
36
216
217
185
222
223
191
230
227
196
232
227
197
237
228
199
234
227
198
229
228
200
226
229
202
226
230
203
223
224
192
207
194
159
169
145
107
150
115
83
164
128
106
122
89
82
86
57
59
125
88
79
177
139
118
200
161
128
198
164
129
170
145
125
63
51
53
42
40
51
42
45
54
21
21
31
11
7
30
15
2
32
55
28
43
152
109
92
187
135
98
189
139
114
147
103
100
109
64
71
88
58
50
81
63
49
47
36
30
29
14
21
67
44
52
73
49
47
106
90
75
226
224
199
210
218
179
189
201
153
174
179
138
167
160
142
30
15
20
35
21
34
31
19
29
26
13
22
28
15
24
223
220
185
228
225
192
232
227
195
235
228
199
239
230
199
238
232
200
238
233
203
236
237
205
235
239
206
233
230
195
211
201
165
189
167
130
149
118
89
110
77
58
115
82
75
91
61
61
81
60
57
123
101
80
177
151
116
196
167
135
145
126
112
89
82
89
49
48
62
23
21
34
21
13
24
17
10
28
16
11
33
35
19
30
150
115
109
180
133
117
151
107
98
116
82
83
60
37
43
46
26
25
59
42
35
57
38
31
67
42
38
84
54
54
96
67
63
82
59
43
200
189
157
224
221
176
206
205
157
194
191
150
184
174
149
48
34
23
70
54
54
66
51
54
48
36
46
45
33
43
227
221
185
231
227
192
234
229
197
238
232
200
242
236
204
243
237
203
243
239
204
244
241
206
238
238
202
241
239
201
221
211
175
182
163
130
135
109
82
91
63
42
78
48
38
92
63
59
86
70
54
88
67
48
125
99
76
193
167
140
142
125
107
89
85
86
30
31
49
14
11
32
17
6
23
13
7
21
8
5
22
27
17
28
93
63
63
149
104
98
89
45
44
96
63
70
52
35
51
71
49
62
81
51
59
92
53
54
139
98
96
150
110
108
142
107
105
85
56
48
75
54
35
200
185
156
213
200
168
156
145
113
134
125
96
107
99
76
106
99
81
96
88
77
82
76
78
83
77
79
232
224
188
235
229
195
239
233
199
241
235
201
244
238
204
245
239
203
244
240
203
245
241
204
241
239
201
236
232
197
232
223
190
208
193
162
178
158
131
122
97
75
113
86
69
89
61
49
140
112
73
131
96
74
85
47
36
187
156
135
192
175
145
104
103
83
23
26
33
22
20
44
16
8
32
18
10
31
15
7
28
41
23
39
88
52
54
115
66
59
129
84
79
76
39
46
59
31
54
86
52
69
85
39
52
138
84
97
153
100
110
149
104
109
145
109
111
100
71
73
36
10
13
62
38
36
189
170
155
197
183
156
163
156
127
137
133
108
125
124
103
113
115
94
100
102
91
86
88
77
235
227
191
241
232
199
242
236
202
242
236
202
243
239
202
244
240
203
243
239
201
244
240
203
244
240
205
239
234
202
235
229
197
229
218
190
192
176
150
129
109
82
141
120
93
115
91
65
149
105
58
174
127
99
110
64
49
146
111
89
216
198
160
96
92
54
35
36
18
30
27
36
22
12
37
23
10
36
26
7
26
71
40
48
113
68
65
122
72
63
130
86
83
76
41
45
76
33
50
82
37
44
127
77
80
122
69
79
103
52
67
134
91
98
144
113
111
114
85
90
41
14
33
40
13
30
67
46
41
172
156
131
186
176
149
152
145
129
148
146
133
135
136
118
132
134
120
94
96
82
237
228
195
241
232
199
242
236
200
241
235
199
239
235
197
241
237
199
243
239
202
243
239
202
243
238
206
238
233
203
238
233
204
241
234
206
231
222
193
189
174
143
173
155
119
166
147
107
202
153
113
191
143
107
154
110
81
110
76
49
177
154
120
183
170
126
84
75
34
56
44
28
40
27
36
40
19
36
56
24
29
140
95
89
124
74
67
109
63
65
87
55
60
64
42
44
82
33
36
122
77
71
139
97
85
98
55
49
98
56
58
133
93
93
142
109
104
80
51
56
29
4
23
26
5
22
65
49
49
73
60
43
160
148
132
127
116
112
100
90
91
94
89
86
93
93
85
91
91
83
235
229
197
239
233
199
241
235
199
241
236
198
240
236
198
241
239
201
241
239
201
241
238
203
243
238
208
241
236
207
239
233
207
236
230
204
238
231
202
224
214
178
211
196
153
180
164
115
149
108
76
183
144
103
180
145
103
140
110
74
126
101
70
192
166
129
205
181
137
157
138
105
122
109
92
136
116
105
163
128
106
163
115
92
127
78
71
101
63
74
59
37
49
34
22
26
99
56
49
159
119
107
146
109
90
112
75
57
137
97
85
134
94
86
126
91
87
65
36
41
21
3
15
26
16
27
96
91
97
83
77
77
60
51
54
54
44
53
51
40
56
34
25
42
37
31
41
34
28
38
235
230
200
238
232
198
239
233
197
240
235
197
240
236
198
241
239
201
240
240
206
241
238
207
242
237
207
239
234
205
241
237
210
240
236
209
244
239
209
248
240
201
244
233
187
211
198
146
175
146
112
126
97
53
146
115
68
162
135
92
119
89
53
127
91
57
228
190
153
239
214
174
230
218
176
220
209
163
203
175
128
178
134
99
133
87
74
102
70
75
73
52
59
41
27
27
129
86
77
158
114
103
154
108
92
158
113
94
156
113
97
138
99
92
98
67
72
48
26
38
11
0
14
15
13
26
53
55
68
45
47
62
49
48
66
33
31
52
34
30
53
32
29
56
32
24
47
27
19
42
232
229
198
234
230
195
236
231
193
240
232
195
240
236
198
242
239
204
240
239
208
240
239
208
240
237
206
239
234
204
244
239
210
245
241
212
245
242
209
247
242
204
255
245
200
242
228
179
205
188
145
171
150
105
135
108
63
145
114
68
141
104
59
165
120
78
205
160
119
248
217
171
255
242
189
235
227
164
223
203
142
205
168
123
159
117
93
126
89
80
114
85
77
104
78
65
141
98
81
169
122
102
167
115
94
165
112
98
136
91
86
80
51
55
39
25
38
6
2
17
5
2
21
34
31
48
54
50
67
48
45
64
41
39
61
39
41
64
35
37
58
23
26
45
33
27
53
30
24
50
225
224
193
230
226
191
236
228
191
239
231
192
241
235
199
241
238
205
238
239
208
239
238
208
239
236
205
243
239
204
245
241
206
245
240
208
247
242
210
249
243
207
255
244
204
252
239
195
223
216
174
209
194
151
171
146
105
147
114
73
183
143
94
197
152
93
183
137
77
211
174
119
233
210
158
245
230
171
232
213
145
214
184
122
184
142
102
158
113
90
132
91
69
120
84
50
152
111
79
188
142
106
160
107
76
119
67
54
79
42
49
33
21
33
4
11
21
0
2
14
1
0
20
48
35
53
68
48
59
36
17
23
36
24
38
48
43
63
46
45
59
37
40
45
35
32
53
33
30
51
219
220
186
227
223
188
236
228
191
244
231
196
243
234
201
240
236
207
236
236
208
236
237
206
240
237
202
245
240
202
245
240
202
246
240
204
251
247
212
250
244
212
252
239
207
255
240
207
246
242
207
229
220
181
224
204
167
219
190
156
220
187
142
216
182
119
199
162
91
205
169
107
186
153
108
195
168
123
222
203
137
230
203
132
212
171
117
179
129
94
161
115
79
147
107
58
154
117
72
188
145
100
165
119
85
121
78
71
57
31
44
13
9
23
0
5
9
3
12
17
21
13
26
57
31
44
101
65
65
110
77
70
71
46
49
38
24
37
47
41
53
47
47
49
38
37
51
36
35
49
220
221
187
228
224
187
238
229
190
245
232
197
244
233
201
239
234
205
236
236
210
237
238
207
242
240
202
245
240
198
248
241
197
250
245
205
252
246
212
251
242
213
250
236
210
255
241
216
247
241
207
254
243
211
255
238
210
243
224
194
231
213
173
224
211
158
214
198
138
206
178
128
158
124
86
152
123
81
200
179
122
188
165
98
217
178
119
209
157
109
194
143
96
191
152
97
175
138
94
178
139
100
142
101
79
110
74
74
81
55
68
19
7
19
17
12
16
26
17
18
50
28
31
76
42
43
96
55
49
113
75
66
124
96
95
44
28
39
32
28
45
35
36
54
46
44
57
43
41
54
224
225
191
232
228
191
240
231
192
246
232
197
242
231
201
238
232
206
237
237
211
240
241
210
244
242
203
250
243
199
251
244
198
251
244
202
249
243
209
253
243
216
254
239
218
255
239
221
254
244
209
255
241
214
255
240
217
251
240
212
251
247
209
244
247
204
249
247
208
249
230
197
222
192
156
174
147
104
190
172
122
221
200
145
202
163
104
201
149
89
183
132
75
170
129
77
136
96
60
105
65
40
80
41
34
62
27
34
58
27
42
46
22
35
45
22
30
56
30
31
72
38
36
92
53
48
106
65
59
107
72
68
91
65
66
33
21
31
24
24
48
33
39
73
42
38
52
39
35
49
229
225
188
233
227
193
237
231
199
241
232
203
244
233
203
246
236
201
248
238
202
249
240
199
250
241
202
249
241
205
249
240
209
250
241
212
251
242
213
252
243
210
252
242
206
252
243
202
255
242
208
255
238
212
254
239
216
252
246
214
245
246
206
246
244
206
250
242
205
255
243
201
251
244
198
233
233
199
223
220
203
242
230
206
242
217
163
226
188
117
194
150
89
163
115
79
109
65
62
87
46
44
77
37
35
74
39
37
68
34
33
63
33
35
65
39
42
65
40
46
74
51
59
85
64
73
79
61
73
52
36
49
27
15
29
25
14
28
31
23
38
34
28
42
33
31
42
32
30
41
230
225
187
233
227
191
239
230
197
241
232
201
244
233
203
246
236
201
249
239
203
250
241
202
251
242
203
250
242
206
250
241
210
250
241
212
251
242
213
252
241
209
252
242
206
251
242
203
253
239
202
255
242
213
253
239
213
253
244
213
244
240
202
255
249
213
255
246
211
255
244
209
251
246
206
244
245
214
216
217
199
218
210
187
228
207
162
234
202
143
228
190
143
181
140
112
128
94
93
106
72
73
90
58
59
84
55
57
73
47
50
64
42
45
60
39
44
53
36
44
46
30
40
33
20
30
21
9
21
19
8
22
21
13
28
25
21
35
31
29
43
38
36
50
34
32
45
33
31
44
230
225
185
235
227
190
239
231
195
242
231
199
244
233
201
246
236
201
249
239
203
250
241
202
251
242
203
250
242
206
250
241
210
250
241
212
251
240
212
252
241
211
252
242
206
252
243
204
255
246
207
250
239
209
255
243
217
251
240
210
254
244
209
248
235
201
254
239
210
251
240
212
240
236
209
203
207
184
190
194
177
183
181
160
189
176
144
158
134
98
154
124
98
129
95
83
105
82
88
84
63
68
66
47
53
53
36
42
38
23
30
25
14
22
17
7
16
11
1
12
14
6
19
12
6
20
13
9
23
20
18
32
25
24
38
25
27
42
24
27
42
24
27
42
28
26
39
27
25
38
231
224
180
234
227
185
239
229
193
241
231
196
243
233
198
245
235
200
247
237
201
248
239
200
250
240
204
249
241
205
249
240
209
251
240
212
251
240
212
252
241
211
254
241
207
255
242
207
250
242
203
251
242
209
252
242
215
251
240
212
255
242
210
255
243
214
253
238
215
238
229
212
202
203
187
185
194
177
177
186
167
173
176
157
172
165
147
64
48
35
59
38
33
50
28
30
38
26
38
28
16
28
22
12
23
17
9
22
12
6
18
11
7
21
14
12
25
15
13
27
15
12
29
17
16
32
17
16
32
14
15
33
16
19
36
22
25
42
21
27
43
18
25
41
23
21
35
22
20
34
231
223
177
234
225
182
238
229
190
240
230
194
242
232
197
244
234
198
246
236
200
247
237
201
249
239
203
250
239
207
250
239
209
251
240
212
251
240
212
254
240
211
254
241
207
255
242
207
251
243
204
250
244
210
249
244
215
248
241
215
253
241
215
250
238
212
228
220
201
199
197
185
177
184
176
166
178
164
160
172
152
183
187
170
119
116
111
55
44
52
48
34
47
40
26
39
26
19
37
22
15
33
17
13
30
13
10
27
8
5
22
8
7
25
12
11
29
14
13
31
13
12
30
13
12
30
13
12
30
14
13
31
12
13
31
9
12
29
7
10
27
5
8
25
7
6
22
5
4
20
231
220
175
235
223
181
239
227
187
241
229
191
241
231
195
243
233
197
245
235
199
246
236
200
249
239
204
249
238
206
250
239
209
251
240
210
253
239
210
253
240
208
253
240
206
254
241
206
252
244
207
246
241
209
247
245
220
241
239
218
242
237
215
221
216
194
192
193
177
157
167
159
145
160
155
158
172
159
167
175
154
178
179
163
81
76
80
55
46
65
43
34
55
34
26
41
25
17
38
19
14
34
18
13
33
16
13
34
15
12
33
14
12
33
14
12
33
15
12
33
17
14
33
16
13
32
15
12
31
14
11
30
12
9
28
11
8
25
11
10
26
13
12
28
15
14
30
14
13
29
229
216
172
233
220
178
236
224
184
239
227
189
239
229
193
242
232
197
244
234
199
245
235
200
247
237
202
248
238
203
250
239
207
253
240
208
253
240
208
253
240
208
253
240
206
253
240
206
251
241
206
245
242
211
220
223
202
202
206
189
184
188
173
184
188
173
155
167
155
124
143
137
119
140
133
129
143
128
169
172
151
113
107
95
53
43
51
43
34
55
39
31
52
33
27
41
30
22
43
26
18
39
22
17
37
23
18
38
22
19
38
21
18
37
20
17
36
20
15
35
19
14
34
21
14
32
20
13
31
21
14
32
26
19
35
29
25
40
28
24
39
23
19
34
12
11
27
11
10
26
227
212
169
231
216
175
235
221
182
237
225
187
238
228
192
240
230
195
243
233
198
244
234
199
245
235
200
247
237
202
251
238
204
252
239
205
253
240
206
251
241
206
251
241
206
251
241
206
251
242
209
221
221
193
180
189
172
154
166
154
155
165
157
169
180
172
165
184
178
152
177
171
133
156
146
145
158
141
121
119
104
68
57
51
66
53
63
56
45
62
33
26
42
31
28
37
28
21
39
25
18
36
21
17
34
21
17
34
21
18
35
20
17
34
21
18
35
24
21
38
27
23
38
29
22
38
28
21
37
27
20
36
25
19
33
21
17
31
18
14
28
17
13
27
21
20
36
20
19
35
227
209
169
230
215
174
233
219
180
234
222
184
236
226
190
239
229
194
240
230
195
243
233
198
245
235
200
247
234
199
249
236
201
252
239
204
249
239
203
250
240
204
251
243
207
248
240
204
245
240
208
189
193
170
170
182
170
145
157
153
149
161
161
149
160
162
145
163
163
150
175
169
164
186
174
170
181
167
78
74
65
59
44
47
46
32
45
32
24
37
26
23
32
24
21
28
22
18
33
21
17
32
20
18
32
22
20
34
23
22
36
23
22
36
20
19
33
18
17
31
18
16
30
19
17
31
21
19
33
24
22
35
26
24
37
26
24
37
23
23
35
21
21
33
16
15
29
14
13
27
224
206
168
227
212
173
231
216
177
233
219
182
236
223
188
237
227
192
238
228
193
241
231
196
245
232
198
245
232
197
249
237
199
246
237
198
250
241
202
250
242
205
243
237
203
249
245
210
212
215
184
180
188
167
142
155
148
146
157
161
63
70
80
67
73
85
112
123
129
132
148
145
135
153
141
90
97
89
51
45
49
47
33
46
46
34
48
42
36
46
33
32
38
31
32
37
32
28
42
30
28
41
28
26
39
24
23
37
19
21
34
18
20
33
20
22
35
23
25
38
17
19
32
16
15
29
14
13
27
14
13
27
15
17
30
17
19
32
16
18
31
14
18
30
17
16
30
16
15
29
221
203
165
226
208
170
228
213
174
230
216
177
234
222
184
234
224
188
236
226
191
241
228
194
242
229
194
244
232
194
246
234
194
244
235
194
247
239
200
246
242
205
239
236
203
234
233
202
185
195
168
160
173
156
137
149
147
100
109
118
47
48
66
39
36
53
48
46
57
91
97
95
75
85
76
51
55
54
48
44
58
42
33
54
35
28
46
26
24
35
25
25
33
24
27
36
29
25
39
29
27
40
29
27
41
28
27
41
24
26
39
20
22
35
17
19
34
14
16
31
18
20
35
17
19
34
15
17
32
11
13
28
9
11
26
7
10
25
9
12
27
12
15
30
13
12
26
12
11
25
217
199
159
222
204
164
224
209
168
227
214
172
231
219
179
234
222
184
236
223
188
239
226
191
242
228
193
245
231
194
242
230
190
245
236
195
241
236
198
242
239
204
236
237
206
203
206
179
166
181
162
133
149
138
134
146
146
47
53
65
41
38
57
46
37
54
55
45
53
130
125
122
53
54
49
50
51
56
37
36
54
31
27
50
27
24
43
26
26
38
28
30
42
26
32
44
33
26
42
30
26
41
29
25
40
28
26
40
28
27
43
27
26
42
24
23
39
21
20
38
17
16
34
18
17
35
18
17
35
14
13
31
9
8
26
4
5
23
4
5
23
5
8
25
9
8
22
8
7
21
213
195
155
218
201
158
221
206
163
223
210
166
227
215
173
231
219
179
233
221
183
237
223
188
240
226
191
244
230
193
241
229
189
244
235
196
239
235
198
236
235
204
222
224
200
180
185
163
150
167
157
131
146
141
79
90
92
38
44
58
41
38
57
50
40
51
72
60
60
167
156
150
62
56
56
37
35
48
29
30
50
35
33
54
31
28
47
30
29
43
17
19
32
14
20
32
21
14
30
19
12
28
15
11
26
13
9
26
12
9
26
12
9
26
12
11
27
14
11
30
16
13
32
15
12
31
15
12
31
15
12
31
15
12
31
11
10
28
7
6
24
4
3
21
4
3
17
3
2
16
209
192
149
212
198
153
216
204
156
220
208
160
224
213
167
228
216
174
231
217
180
234
220
183
238
222
186
240
226
189
242
230
190
238
230
191
238
235
200
228
228
200
193
198
178
165
172
156
124
138
139
131
145
146
107
118
122
50
58
71
37
39
52
42
38
39
123
113
101
166
154
142
50
40
41
29
25
40
30
32
47
32
31
45
27
25
39
29
25
42
26
25
39
24
28
39
28
21
37
27
20
36
24
20
35
23
21
35
22
19
36
21
18
35
17
14
31
14
11
28
12
9
26
13
8
28
14
9
29
15
10
30
15
12
31
14
11
28
11
8
25
8
7
23
2
1
17
2
1
17
204
187
143
207
193
146
211
199
149
215
203
153
220
210
161
223
212
167
227
213
174
231
215
179
234
218
182
236
220
184
239
227
189
234
226
189
233
230
197
215
217
193
169
176
160
139
149
138
132
142
154
75
86
92
101
112
118
114
124
134
64
75
81
46
52
42
145
141
116
139
128
110
48
36
38
44
37
53
38
38
50
35
34
39
37
31
41
35
26
43
32
28
43
22
22
30
24
20
35
20
16
31
16
14
28
14
13
27
15
14
28
15
14
28
11
10
24
8
7
23
9
6
23
10
7
24
10
7
24
10
8
22
9
7
21
8
6
20
7
6
20
7
6
20
5
4
20
4
3
19
199
182
136
203
189
140
206
194
144
211
199
149
215
205
156
219
208
162
223
209
170
227
211
175
232
216
180
234
218
182
235
223
185
233
225
188
226
223
192
204
208
185
159
167
152
113
123
114
89
96
114
35
44
53
33
44
50
63
77
86
104
119
122
91
102
85
161
162
128
93
85
62
77
65
67
53
46
62
34
34
42
32
32
30
32
22
30
34
21
39
28
19
36
23
22
28
19
17
30
19
19
31
19
19
31
16
18
31
15
17
30
13
15
28
12
14
27
11
13
26
14
13
27
12
11
25
10
8
22
8
6
20
8
6
19
6
6
18
4
4
16
2
2
14
4
3
19
2
1
17
195
179
128
198
184
135
203
189
142
210
191
148
215
196
153
218
201
158
219
206
164
223
211
169
226
215
169
229
217
169
231
220
175
220
217
186
185
194
177
150
162
158
120
130
131
111
117
117
45
46
64
28
26
37
27
24
33
30
31
49
47
53
75
93
98
104
163
158
138
121
105
71
97
80
52
54
43
37
37
35
46
32
34
47
31
28
39
31
25
35
29
25
39
20
22
37
24
22
36
22
20
34
22
20
34
21
19
33
18
17
31
17
16
30
17
16
30
15
14
28
12
11
27
11
10
26
9
8
24
8
7
23
8
7
23
7
6
22
6
5
21
5
4
20
4
3
19
3
2
18
190
174
123
192
178
129
197
183
136
204
185
142
209
190
147
212
195
152
213
200
158
217
205
163
219
208
162
225
213
165
222
211
166
188
185
154
139
148
131
117
129
125
91
101
102
64
69
72
22
23
41
14
12
23
11
8
17
10
11
29
12
18
40
36
41
47
133
128
108
158
142
108
120
103
75
70
59
53
44
42
53
34
36
49
30
27
38
29
23
33
29
25
39
20
22
37
22
20
34
20
18
32
20
18
32
19
17
31
16
15
29
15
14
28
15
14
28
13
12
26
11
10
26
10
9
25
9
8
24
8
7
23
8
7
23
7
6
22
6
5
21
5
4
20
4
3
19
3
2
18
