P3
# Isso eh um comentario
# E isso tambem
5 3
255
255 0 0 
0 0 0 
255 255 255
0 0 0 
0 255 0 
0 0 0
# comentarios podem aparecer em qualquer lugar
128 128 128
0 0 0 
0 0 255
128 128 128
0 0 0 
0 0 255
128 128 128
0 0 0 
0 0 255
